# xmcd
#
# Track frame offsets:
#	150
#	15728
#	28418
#	44442
#	61126
#	77863
#	91246
#	109571
#	130828
#	144977
#	165139
#	179998
#	193980
#	210742
#	230071
#	249499
#	270621
#
# Disc length: 3982 seconds
# Revision: 1
# Processed by: cddbd v1.5.2PL0 Copyright (c) Steve Scherf et al.
# Submitted via: dBpowerAMP V12.0
#
DISCID=f10f8c11
DTITLE=Eugene Hideaway Bridges - Roots And Vines
DYEAR=2013
DGENRE=Blues Soul
TTITLE0=Glory Glory
TTITLE1=Farewell, My Darling
TTITLE2=My Baby Loves Me
TTITLE3=Good Old Days
TTITLE4=Hold On
TTITLE5=They Call The Wind Mariah
TTITLE6=Rise Above It
TTITLE7=I Will Still Be In Love With You
TTITLE8=A Thing Called Love
TTITLE9=Under My Roof
TTITLE10=17 Miles To Go
TTITLE11=How Long Will It Take
TTITLE12=Nelly Bell
TTITLE13=Wayward Wind
TTITLE14=Basil's Bar
TTITLE15=Don't Call It Supper
TTITLE16=School House Blues
EXTD=
EXTT0=
EXTT1=
EXTT2=
EXTT3=
EXTT4=
EXTT5=
EXTT6=
EXTT7=
EXTT8=
EXTT9=
EXTT10=
EXTT11=
EXTT12=
EXTT13=
EXTT14=
EXTT15=
EXTT16=
PLAYORDER=
